<?xml version="1.0" encoding="UTF-8"?>
<svg version="1.1" xmlns="http://www.w3.org/2000/svg" width="218" height="140">
<path d="M0 0 C71.94 0 143.88 0 218 0 C218 46.2 218 92.4 218 140 C146.06 140 74.12 140 0 140 C0 93.8 0 47.6 0 0 Z " fill="#010000" transform="translate(0,0)"/>
<path d="M0 0 C1.79244141 0.01740234 1.79244141 0.01740234 3.62109375 0.03515625 C5.41740234 0.04869141 5.41740234 0.04869141 7.25 0.0625 C8.17683594 0.07410156 9.10367188 0.08570313 10.05859375 0.09765625 C10.68359375 2.47265625 10.68359375 2.47265625 11.05859375 5.09765625 C8.62216702 7.53408298 7.65827577 7.45001556 4.296875 7.7734375 C3.34232422 7.87978516 2.38777344 7.98613281 1.40429688 8.09570312 C-0.59733598 8.30321303 -2.59996748 8.50133271 -4.60351562 8.68945312 C-11.15196338 9.44048234 -14.91571793 10.78891927 -19.94140625 15.09765625 C-19.07257813 15.2678125 -18.20375 15.43796875 -17.30859375 15.61328125 C-5.07718335 18.18543467 -5.07718335 18.18543467 -0.94140625 22.09765625 C1.49009711 26.7492279 1.42894837 31.11369527 0.05859375 36.09765625 C-1.83617749 41.66487737 -4.84289354 44.31656653 -10.05395508 46.99975586 C-11.8780948 47.87961836 -13.72207308 48.71798032 -15.56640625 49.5546875 C-18.9098086 51.0034587 -18.9098086 51.0034587 -21.7421875 52.80078125 C-23.94140625 54.09765625 -23.94140625 54.09765625 -26.12890625 54.03515625 C-28.5380454 52.78904979 -29.04919129 51.62559864 -29.94140625 49.09765625 C-29.94140625 48.10765625 -29.94140625 47.11765625 -29.94140625 46.09765625 C-29.338125 46.04867187 -28.73484375 45.9996875 -28.11328125 45.94921875 C-27.3140625 45.87445313 -26.51484375 45.7996875 -25.69140625 45.72265625 C-24.50804688 45.61824219 -24.50804688 45.61824219 -23.30078125 45.51171875 C-20.82054644 45.07644575 -19.0815825 44.41395934 -16.94140625 43.09765625 C-16.44640625 42.10765625 -16.44640625 42.10765625 -15.94140625 41.09765625 C-14.95140625 41.09765625 -13.96140625 41.09765625 -12.94140625 41.09765625 C-12.88729501 38.68068753 -12.84768347 36.26493838 -12.81640625 33.84765625 C-12.79126953 32.82478516 -12.79126953 32.82478516 -12.765625 31.78125 C-12.72612049 27.71228548 -13.06590286 25.84866304 -14.94140625 22.09765625 C-18.24140625 22.09765625 -21.54140625 22.09765625 -24.94140625 22.09765625 C-25.39515625 23.64453125 -25.84890625 25.19140625 -26.31640625 26.78515625 C-27.37162424 30.31076775 -28.57508242 33.68184667 -29.94140625 37.09765625 C-30.38548671 38.61658114 -30.82202586 40.13771755 -31.25390625 41.66015625 C-32.42383607 45.67991511 -33.89719528 49.44645206 -35.56640625 53.28515625 C-37.4394316 57.63702227 -38.30870926 61.3976215 -38.94140625 66.09765625 C-39.85278012 68.18724769 -40.88395631 70.16944476 -41.97265625 72.171875 C-43.10759672 74.27300651 -43.10759672 74.27300651 -43.87890625 77.47265625 C-44.94140625 80.09765625 -44.94140625 80.09765625 -47.50390625 81.28515625 C-48.71046875 81.68734375 -48.71046875 81.68734375 -49.94140625 82.09765625 C-50.27140625 83.08765625 -50.60140625 84.07765625 -50.94140625 85.09765625 C-55.28203411 88.73818284 -60.44093929 89.26095136 -65.94140625 89.09765625 C-68.59361612 88.39944191 -70.48940172 87.42173869 -72.94140625 86.09765625 C-73.68390625 85.78828125 -74.42640625 85.47890625 -75.19140625 85.16015625 C-77.51651582 83.74848259 -78.52670912 82.43464211 -79.94140625 80.09765625 C-80.33984375 77.0390625 -80.33984375 77.0390625 -80.31640625 73.66015625 C-80.32414062 72.54769531 -80.331875 71.43523437 -80.33984375 70.2890625 C-79.90828632 66.83237213 -78.93362264 64.91732759 -76.94140625 62.09765625 C-70.19140625 62.84765625 -70.19140625 62.84765625 -67.94140625 65.09765625 C-67.67148719 67.7860501 -67.85403268 70.38907561 -67.94140625 73.09765625 C-69.59755282 73.47984392 -71.26597649 73.81160727 -72.94140625 74.09765625 C-73.27140625 73.76765625 -73.60140625 73.43765625 -73.94140625 73.09765625 C-74.36011178 75.42837504 -74.36011178 75.42837504 -73.94140625 78.09765625 C-71.91179315 80.62148951 -71.91179315 80.62148951 -68.94140625 82.09765625 C-65.1413533 81.94255205 -62.17241482 81.07322362 -58.94140625 79.09765625 C-55.68097766 74.59430184 -53.44638021 69.43347303 -51.94140625 64.09765625 C-51.28140625 64.09765625 -50.62140625 64.09765625 -49.94140625 64.09765625 C-49.94140625 61.45765625 -49.94140625 58.81765625 -49.94140625 56.09765625 C-49.28140625 56.09765625 -48.62140625 56.09765625 -47.94140625 56.09765625 C-47.88533203 55.21013672 -47.88533203 55.21013672 -47.828125 54.3046875 C-47.76238281 53.51449219 -47.69664063 52.72429687 -47.62890625 51.91015625 C-47.54189453 50.74419922 -47.54189453 50.74419922 -47.453125 49.5546875 C-46.83824044 46.60230284 -45.49321922 44.67366578 -43.94140625 42.09765625 C-43.30620013 40.01428475 -42.74366262 37.90743387 -42.25390625 35.78515625 C-41.87685547 34.18220703 -41.87685547 34.18220703 -41.4921875 32.546875 C-41.31042969 31.73863281 -41.12867188 30.93039063 -40.94140625 30.09765625 C-40.28140625 30.09765625 -39.62140625 30.09765625 -38.94140625 30.09765625 C-38.83828125 29.37578125 -38.73515625 28.65390625 -38.62890625 27.91015625 C-37.88153693 24.85273632 -36.66095436 22.7143599 -34.94140625 20.09765625 C-36.54709291 20.38083551 -38.15092672 20.67453416 -39.75390625 20.97265625 C-40.64722656 21.13507812 -41.54054687 21.2975 -42.4609375 21.46484375 C-45.16868471 22.00954074 -45.16868471 22.00954074 -47.94140625 24.09765625 C-48.86953125 24.36578125 -49.79765625 24.63390625 -50.75390625 24.91015625 C-53.62792562 25.98086935 -54.95246977 26.77932508 -57.19140625 28.72265625 C-59.94140625 31.09765625 -59.94140625 31.09765625 -61.94140625 31.09765625 C-62.37453125 32.02578125 -62.37453125 32.02578125 -62.81640625 32.97265625 C-63.94140625 35.09765625 -63.94140625 35.09765625 -65.94140625 37.09765625 C-66.33904888 39.08586938 -66.67915974 41.08709964 -66.94140625 43.09765625 C-61.8733432 41.51501303 -61.8733432 41.51501303 -58.56640625 37.72265625 C-57.96271616 35.18715786 -57.38184473 32.66688069 -56.94140625 30.09765625 C-54.56640625 29.47265625 -54.56640625 29.47265625 -51.94140625 29.09765625 C-49.94140625 31.09765625 -49.94140625 31.09765625 -49.89453125 33.15625 C-50.04148437 34.33380859 -50.04148437 34.33380859 -50.19140625 35.53515625 C-50.2790625 36.31761719 -50.36671875 37.10007813 -50.45703125 37.90625 C-51.15872999 41.08087091 -52.38833214 42.7445244 -55.11328125 44.484375 C-64.10179242 49.01948746 -64.10179242 49.01948746 -68.94140625 48.09765625 C-72.25283598 46.57618854 -72.82712955 45.39838441 -74.12890625 41.97265625 C-73.81520668 35.48953184 -69.73412306 31.63861871 -65.078125 27.40234375 C-63.09822693 25.83646163 -61.06564099 24.46080153 -58.94140625 23.09765625 C-58.18730469 22.57171875 -57.43320312 22.04578125 -56.65625 21.50390625 C-49.8966947 17.24131187 -43.41209883 16.04459461 -35.57885742 15.2980957 C-30.01396432 14.67406491 -27.69392717 13.50307624 -23.94140625 9.09765625 C-18.25710331 4.86547776 -12.89048925 2.43972289 -5.875 1.421875 C-3.03457085 0.94560102 -3.24405389 0.10770431 0 0 Z " fill="#F50000" transform="translate(89.94140625,12.90234375)"/>
<path d="M0 0 C0.33 0.99 0.66 1.98 1 3 C1.495 2.505 1.99 2.01 2.5 1.5 C5.91060453 -0.54636272 9.10399308 -0.77615763 13 0 C15.10058594 1.20581055 15.10058594 1.20581055 17 3 C17.45410156 5.36010742 17.45410156 5.36010742 17.390625 8.10546875 C17.37128906 9.57983398 17.37128906 9.57983398 17.3515625 11.08398438 C17.31804687 12.10814453 17.28453125 13.13230469 17.25 14.1875 C17.23195312 15.22326172 17.21390625 16.25902344 17.1953125 17.32617188 C17.14814437 19.88504284 17.08234057 22.44205842 17 25 C17.99 25 18.98 25 20 25 C20 25.66 20 26.32 20 27 C17.69 27 15.38 27 13 27 C12.67 25.02 12.34 23.04 12 21 C11.34 21 10.68 21 10 21 C9.67 22.98 9.34 24.96 9 27 C1.74 27 -5.52 27 -13 27 C-13 26.34 -13 25.68 -13 25 C-11.68 25 -10.36 25 -9 25 C-9 17.74 -9 10.48 -9 3 C-10.32 3 -11.64 3 -13 3 C-13 2.34 -13 1.68 -13 1 C-8.60563789 0.14256349 -4.47427924 -0.08948558 0 0 Z " fill="#F4F4F4" transform="translate(198,73)"/>
<path d="M0 0 C4.40608743 2.16298837 7.1987497 4.39680479 9 9 C9.68426057 14.04325384 9.5739862 17.83076884 7.3125 22.4375 C4.28115306 25.79656012 2.25860352 27.69355631 -2.33203125 28.31640625 C-6.67021667 28.51803106 -9.46690399 28.25200902 -13.4375 26.375 C-17.57432842 22.54086635 -19.14667482 19.08196707 -19.4375 13.5 C-19.27137833 9.01471493 -18.0067292 6.41304396 -15 3 C-10.63453818 -0.85187808 -5.54054055 -0.79911643 0 0 Z " fill="#F3F3F3" transform="translate(121,73)"/>
<path d="M0 0 C2.8145589 1.34168592 3.8539679 2.53991442 6 5 C6.66 7.31 7.32 9.62 8 12 C2.72 12 -2.56 12 -8 12 C-7.67 16.29 -7.34 20.58 -7 25 C-3.7 24.67 -0.4 24.34 3 24 C3.66 22.35 4.32 20.7 5 19 C5.99 19.33 6.98 19.66 8 20 C4.09927007 26.40834202 4.09927007 26.40834202 0 28 C-4.62516534 28.72320767 -8.14401775 28.4121396 -12.375 26.375 C-16.53747815 22.60894834 -17.81928494 19.62643554 -18.4375 14.0625 C-18.24329619 9.45457316 -16.69677598 6.7171777 -14 3 C-9.90906888 -0.62339613 -5.23302053 -0.96737175 0 0 Z " fill="#F3F3F3" transform="translate(176,73)"/>
<path d="M0 0 C1.74216797 0.05414063 1.74216797 0.05414063 3.51953125 0.109375 C4.39996094 0.15578125 5.28039062 0.2021875 6.1875 0.25 C6.1875 2.89 6.1875 5.53 6.1875 8.25 C3.1875 7.25 3.1875 7.25 1.1875 4.25 C-1.73584973 3.33221709 -1.73584973 3.33221709 -4.8125 3.25 C-5.8025 3.91 -6.7925 4.57 -7.8125 5.25 C-7.8125 5.91 -7.8125 6.57 -7.8125 7.25 C-6.99265625 7.42015625 -6.1728125 7.5903125 -5.328125 7.765625 C-3.71164063 8.12914063 -3.71164063 8.12914063 -2.0625 8.5 C-0.99515625 8.73203125 0.0721875 8.9640625 1.171875 9.203125 C4.52324011 10.36655227 6.03790235 11.45040496 8.1875 14.25 C8.79839984 19.06083621 8.92607492 21.0928993 6.3125 25.1875 C3.00503529 28.39768634 0.92638349 28.40161481 -3.63671875 28.3515625 C-6.74596633 28.20642707 -9.74315071 27.76155822 -12.8125 27.25 C-12.8125 24.28 -12.8125 21.31 -12.8125 18.25 C-11.8225 18.25 -10.8325 18.25 -9.8125 18.25 C-9.461875 19.219375 -9.11125 20.18875 -8.75 21.1875 C-7.07305147 24.60406751 -7.07305147 24.60406751 -3.3125 25.1875 C0.16097545 25.44390565 0.16097545 25.44390565 3.1875 24.25 C2.8575 22.6 2.5275 20.95 2.1875 19.25 C1.43984375 19.16363281 0.6921875 19.07726562 -0.078125 18.98828125 C-8.03138574 17.85358829 -8.03138574 17.85358829 -11.5625 15.125 C-13.00587868 11.80522904 -13.04517208 9.74998914 -12.66015625 6.21484375 C-10.19076176 0.49085561 -5.69460097 -0.23008489 0 0 Z " fill="#F2F2F2" transform="translate(146.8125,72.75)"/>
<path d="M0 0 C0.33 0.66 0.66 1.32 1 2 C1.66 1.34 2.32 0.68 3 0 C6.625 0.375 6.625 0.375 10 1 C10.625 3.875 10.625 3.875 11 7 C10.34 7.66 9.68 8.32 9 9 C6.375 8.625 6.375 8.625 4 8 C3.67 6.68 3.34 5.36 3 4 C1.22598368 8.62974991 0.60358379 12.96044843 0.375 17.875 C0.31699219 18.90753906 0.31699219 18.90753906 0.2578125 19.9609375 C0.16451834 21.64023246 0.08121762 23.32007767 0 25 C1.65 25 3.3 25 5 25 C5 25.66 5 26.32 5 27 C-0.61 27 -6.22 27 -12 27 C-12 26.34 -12 25.68 -12 25 C-11.01 25 -10.02 25 -9 25 C-9 17.74 -9 10.48 -9 3 C-9.99 3 -10.98 3 -12 3 C-12 2.34 -12 1.68 -12 1 C-10.56274129 0.83126522 -9.12518162 0.66509263 -7.6875 0.5 C-6.88699219 0.4071875 -6.08648437 0.314375 -5.26171875 0.21875 C-3 0 -3 0 0 0 Z " fill="#F8F8F8" transform="translate(89,73)"/>
<path d="M0 0 C0 1.65 0 3.3 0 5 C0.66 5 1.32 5 2 5 C1.67 11.6 1.34 18.2 1 25 C1.99 25 2.98 25 4 25 C4 25.66 4 26.32 4 27 C-1.28 27 -6.56 27 -12 27 C-12 26.34 -12 25.68 -12 25 C-10.68 25 -9.36 25 -8 25 C-8 17.74 -8 10.48 -8 3 C-9.32 3 -10.64 3 -12 3 C-12 2.34 -12 1.68 -12 1 C-7.93631321 0.22596442 -4.13574827 -0.0984702 0 0 Z " fill="#F9F9F9" transform="translate(197,73)"/>
<path d="M0 0 C5.29877676 -0.50464541 7.90716575 0.63478073 12 4 C15.38570467 7.83713196 15.51291172 11.63401462 15.3515625 16.5625 C14.6696771 21.29023879 12.29194995 23.95247302 8.6875 26.875 C5.32612427 28.28208751 2.60765422 28.21221495 -1 28 C-1 27.34 -1 26.68 -1 26 C0.65 25.34 2.3 24.68 4 24 C4 17.4 4 10.8 4 4 C1.525 3.01 1.525 3.01 -1 2 C-0.67 1.34 -0.34 0.68 0 0 Z " fill="#F6F6F6" transform="translate(115,73)"/>
<path d="M0 0 C2.30009773 2.30009773 1.18537365 7.84790666 1.1875 10.9375 C1.19974609 11.87013672 1.21199219 12.80277344 1.22460938 13.76367188 C1.22750977 15.10075195 1.22750977 15.10075195 1.23046875 16.46484375 C1.23457764 17.285896 1.23868652 18.10694824 1.24291992 18.95288086 C1 21 1 21 -1 23 C-5.55555556 22.44444444 -5.55555556 22.44444444 -7 21 C-7.10030595 18.03212407 -7.13871785 15.09262828 -7.125 12.125 C-7.12886719 11.29613281 -7.13273437 10.46726562 -7.13671875 9.61328125 C-7.13542969 8.81535156 -7.13414063 8.01742187 -7.1328125 7.1953125 C-7.13168457 6.46328613 -7.13055664 5.73125977 -7.12939453 4.97705078 C-7 3 -7 3 -6 0 C-3.49749232 -1.25125384 -2.59701335 -0.83774624 0 0 Z " fill="#030303" transform="translate(119,76)"/>
<path d="M0 0 C0.99 0.33 1.98 0.66 3 1 C3 7.93 3 14.86 3 22 C0.36 22 -2.28 22 -5 22 C-5.13548815 19.26916098 -5.23429855 16.54508193 -5.3125 13.8125 C-5.35439453 13.04357422 -5.39628906 12.27464844 -5.43945312 11.48242188 C-5.53491887 7.03371827 -5.43312555 5.52445124 -2.48046875 1.94921875 C-1.66191406 1.30597656 -0.84335938 0.66273437 0 0 Z " fill="#000000" transform="translate(203,76)"/>
<path d="M0 0 C0.66 0.33 1.32 0.66 2 1 C0.95125002 3.62187494 0.35068687 4.79371361 -2.125 6.25 C-2.74375 6.4975 -3.3625 6.745 -4 7 C-3.87625 8.3303125 -3.87625 8.3303125 -3.75 9.6875 C-4.06090174 13.80694806 -4.98094174 15.21928844 -8 18 C-11.25 18.8125 -11.25 18.8125 -14 19 C-14.46397935 15.10257342 -14.25225057 13.38244441 -12.0625 10.0625 C-8.50571357 6.18704195 -4.22142887 3.10859032 0 0 Z " fill="#120000" transform="translate(37,37)"/>
<path d="M0 0 C0.99 0 1.98 0 3 0 C3.350625 0.969375 3.70125 1.93875 4.0625 2.9375 C5.73075055 6.35060767 5.73075055 6.35060767 9.4375 6.875 C11.95712712 6.96340797 14.47882234 7 17 7 C17 7.66 17 8.32 17 9 C12.09873048 11.45063476 5.24757977 9.87459663 0 9 C0 6.03 0 3.06 0 0 Z " fill="#E9E9E9" transform="translate(134,91)"/>
<path d="M0 0 C1.17949219 0.01804687 2.35898438 0.03609375 3.57421875 0.0546875 C4.92966797 0.08949219 4.92966797 0.08949219 6.3125 0.125 C6.3125 2.765 6.3125 5.405 6.3125 8.125 C3.3125 7.125 3.3125 7.125 1.3125 4.125 C-3.99842444 2.39586181 -6.92758398 3.74504199 -11.6875 6.125 C-9.15204821 0.27395742 -6.06383321 -0.12007591 0 0 Z " fill="#F1F1F1" transform="translate(146.6875,72.875)"/>
<path d="M0 0 C3.625 0.375 3.625 0.375 7 1 C7.625 3.875 7.625 3.875 8 7 C7.34 7.66 6.68 8.32 6 9 C3.375 8.625 3.375 8.625 1 8 C1 6.68 1 5.36 1 4 C0.01 3.34 -0.98 2.68 -2 2 C-1.34 1.34 -0.68 0.68 0 0 Z " fill="#EDEDED" transform="translate(92,73)"/>
<path d="M0 0 C2.125 0.375 2.125 0.375 4 1 C4 3.31 4 5.62 4 8 C2.02 8 0.04 8 -2 8 C-2.125 5.125 -2.125 5.125 -2 2 C-1.34 1.34 -0.68 0.68 0 0 Z " fill="#030303" transform="translate(170,75)"/>
<path d="M0 0 C1.8871875 0.061875 1.8871875 0.061875 3.8125 0.125 C3.4825 1.115 3.1525 2.105 2.8125 3.125 C1.760625 3.24875 0.70875 3.3725 -0.375 3.5 C-3.64708771 4.03640782 -6.19286076 4.76380035 -9.1875 6.125 C-7.20938974 1.56013016 -5.01716504 -0.16449721 0 0 Z " fill="#D5D5D5" transform="translate(144.1875,72.875)"/>
<path d="M0 0 C0.99 0.33 1.98 0.66 3 1 C-0.625 6.875 -0.625 6.875 -4 8 C-4.99 7.34 -5.98 6.68 -7 6 C-6.21625 5.938125 -5.4325 5.87625 -4.625 5.8125 C-3.75875 5.544375 -2.8925 5.27625 -2 5 C-0.62533375 2.52363988 -0.62533375 2.52363988 0 0 Z " fill="#D2D2D2" transform="translate(181,92)"/>
<path d="M0 0 C0.66 0.33 1.32 0.66 2 1 C0.59645587 4.50886032 -0.64365823 5.4267148 -4 7 C-4.66 7.99 -5.32 8.98 -6 10 C-6.33 8.68 -6.66 7.36 -7 6 C-4.69 4.02 -2.38 2.04 0 0 Z " fill="#2E0000" transform="translate(37,37)"/>
<path d="M0 0 C2.64 0.33 5.28 0.66 8 1 C7.67 1.66 7.34 2.32 7 3 C4.03 3 1.06 3 -2 3 C-1.34 2.01 -0.68 1.02 0 0 Z " fill="#E8E8E8" transform="translate(169,98)"/>
<path d="M0 0 C0.99 1.485 0.99 1.485 2 3 C3.32 2.34 4.64 1.68 6 1 C6 1.99 6 2.98 6 4 C4.125 5.0625 4.125 5.0625 2 6 C1.34 5.67 0.68 5.34 0 5 C0 3.35 0 1.7 0 0 Z " fill="#D0D0D0" transform="translate(197,73)"/>
</svg>
